<svg width="256" height="256" viewBox="0 0 256 256" fill="none" xmlns="http://www.w3.org/2000/svg">
<rect width="256" height="256" rx="64" fill="black"/>
<g clip-path="url(#clip0_226_3739)">
<path d="M230.137 102.8L203.281 100.383C200.211 92.6673 195.893 85.545 190.548 79.2388L201.801 55.6991C203.667 51.7988 202.132 47.1672 198.256 45.0157L167.744 28.1108C163.868 25.9593 158.921 26.9979 156.337 30.5061L140.733 51.6186C136.592 50.9827 132.34 50.6541 128.011 50.6541C123.682 50.6541 119.431 50.9933 115.289 51.6186L99.6635 30.5061C97.0794 26.9979 92.1321 25.9699 88.256 28.1108L57.744 45.0157C53.8679 47.1672 52.3329 51.7882 54.1992 55.6991L65.4521 79.2388C60.1183 85.5344 55.8004 92.6673 52.7194 100.383L25.8627 102.8C21.4013 103.202 18 106.795 18 111.088V144.898C18 149.19 21.4123 152.783 25.8627 153.186L52.7194 155.602C55.7894 163.318 60.1072 170.44 65.4521 176.746L54.1992 200.286C52.3329 204.186 53.8679 208.818 57.744 210.97L88.256 227.874C92.1321 230.026 97.0794 228.987 99.6635 225.479L115.267 204.367C119.408 205.003 123.66 205.331 127.989 205.331C132.318 205.331 136.569 204.992 140.711 204.367L156.314 225.479C158.91 228.987 163.846 230.015 167.722 227.874L198.234 210.97C202.11 208.818 203.645 204.197 201.779 200.286L190.526 176.746C195.86 170.451 200.177 163.318 203.259 155.602L230.115 153.186C234.577 152.783 237.978 149.19 237.978 144.898V111.088C237.978 106.795 234.566 103.202 230.115 102.8H230.137Z" fill="#141414"/>
<path d="M230.137 153.188C234.599 152.785 238 149.192 238 144.899V111.09C238 106.797 234.588 103.204 230.137 102.801L207.841 100.798C189.145 128.683 146.707 172.424 63.8177 174.745C64.3477 175.424 64.8889 176.091 65.4521 176.748L54.1992 200.288C52.3329 204.188 53.8679 208.82 57.744 210.971L88.256 227.876C92.1321 230.028 97.0794 228.989 99.6635 225.481L115.267 204.369C119.408 205.004 123.66 205.333 127.989 205.333C132.318 205.333 136.569 204.994 140.711 204.369L156.314 225.481C158.91 228.989 163.846 230.017 167.722 227.876L198.234 210.971C202.11 208.82 203.645 204.199 201.779 200.288L190.526 176.748C195.86 170.453 200.177 163.32 203.258 155.604L230.115 153.188H230.137Z" fill="#141414"/>
<path d="M167.192 121.318C161.781 121.318 156.513 118.615 153.609 113.793C151.036 109.5 147.292 105.918 142.787 103.416C138.292 100.926 133.19 99.6115 128.044 99.6115H128C119.364 99.6115 112.352 92.892 112.341 84.5932C112.341 76.2945 119.331 69.5643 127.978 69.5537H128.033C138.667 69.5537 149.18 72.267 158.435 77.3861C167.7 82.5265 175.419 89.9244 180.731 98.7848C185.048 105.981 182.475 115.16 174.977 119.304C172.514 120.66 169.831 121.318 167.17 121.318H167.192Z" fill="#00B787"/>
<path d="M185.015 60.5533C186.875 52.8555 181.882 45.1676 173.861 43.3819C165.841 41.5963 157.83 46.389 155.97 54.0868C154.109 61.7846 159.103 69.4725 167.124 71.2581C175.144 73.0438 183.154 68.2511 185.015 60.5533Z" fill="#86EF5F"/>
<path d="M167.17 164.741C164.508 164.741 161.814 164.094 159.34 162.716C151.853 158.562 149.302 149.373 153.631 142.187C156.215 137.905 157.584 132.998 157.584 128.006C157.584 123.014 156.215 118.106 153.631 113.825C149.302 106.639 151.853 97.4496 159.34 93.2949C166.827 89.1403 176.402 91.5886 180.73 98.7745C186.064 107.624 188.891 117.735 188.891 128.006C188.891 138.276 186.075 148.387 180.73 157.247C177.826 162.059 172.57 164.751 167.159 164.751L167.17 164.741Z" fill="#00D4F8"/>
<path d="M225.079 136.41C229.916 130.019 228.447 121.074 221.777 116.421C215.118 111.779 205.798 113.189 200.95 119.59C196.113 125.981 197.593 134.926 204.252 139.579C210.911 144.222 220.231 142.812 225.079 136.41Z" fill="#0085E6"/>
<path d="M128.044 186.446H127.989C119.342 186.446 112.341 179.706 112.352 171.407C112.352 163.108 119.364 156.389 128.011 156.389C128.022 156.389 128.044 156.389 128.055 156.389C133.201 156.389 138.303 155.074 142.798 152.584C147.303 150.082 151.047 146.5 153.62 142.207C157.938 135.011 167.512 132.542 174.999 136.686C182.486 140.83 185.07 150.019 180.753 157.205C175.43 166.065 167.722 173.463 158.457 178.603C149.203 183.733 138.69 186.436 128.055 186.436L128.044 186.446Z" fill="#FF5B8C"/>
<path d="M184.716 202.968C187.203 195.435 182.856 187.393 175.007 185.007C167.158 182.62 158.779 186.792 156.292 194.325C153.806 201.858 158.152 209.9 166.001 212.286C173.85 214.673 182.229 210.501 184.716 202.968Z" fill="#FF5B8C"/>
<path d="M88.808 121.318C86.1577 121.318 83.4742 120.671 81.0116 119.304C73.5244 115.16 70.9403 105.971 75.2582 98.7848C80.5809 89.9244 88.289 82.5265 97.5541 77.3861C106.808 72.2564 117.321 69.5537 127.956 69.5537H128.011C136.658 69.5537 143.659 76.2945 143.648 84.5932C143.648 92.892 136.636 99.6115 127.989 99.6115C127.978 99.6115 127.967 99.6115 127.945 99.6115C122.799 99.6115 117.697 100.926 113.202 103.427C108.697 105.928 104.953 109.511 102.38 113.803C99.4867 118.626 94.2191 121.328 88.797 121.328L88.808 121.318Z" fill="#FF5B8C"/>
<path d="M87.0412 43.0997C78.8583 42.273 71.5147 47.9751 70.6533 55.8287C69.792 63.6823 75.7331 70.7304 83.916 71.5571C92.0989 72.3838 99.4426 66.6817 100.304 58.8281C101.165 50.9745 95.2241 43.9264 87.0412 43.0997Z" fill="#FF5B8C"/>
<path d="M141.561 77.0679C137.243 69.882 127.68 67.4125 120.181 71.5566C112.694 75.7007 110.121 84.8791 114.428 92.0756C114.428 92.0756 114.428 92.0756 114.428 92.0862C114.505 92.2028 114.582 92.3194 114.66 92.4359C117.597 97.0358 122.732 99.6006 128.011 99.6006C130.672 99.6006 133.367 98.9541 135.84 97.5763C143.317 93.4216 145.878 84.2432 141.561 77.0573V77.0679Z" fill="#00B787"/>
<path d="M127.956 186.446C117.321 186.446 106.808 183.733 97.5542 178.614C88.289 173.474 80.5699 166.076 75.2472 157.215C70.9293 150.029 73.5024 140.84 81.0006 136.696C88.4988 132.552 98.0621 135.022 102.38 142.218C104.953 146.511 108.697 150.093 113.202 152.594C117.697 155.085 122.799 156.399 127.945 156.399C127.956 156.399 127.978 156.399 127.989 156.399C136.625 156.399 143.637 163.119 143.648 171.418C143.648 179.716 136.658 186.446 128.011 186.457H127.956V186.446Z" fill="#FFBE40"/>
<path d="M98.6367 205.405C102.512 198.433 99.7651 189.766 92.5007 186.046C85.2363 182.326 76.2056 184.963 72.3301 191.935C68.4545 198.907 71.2017 207.574 78.4661 211.294C85.7304 215.014 94.7612 212.377 98.6367 205.405Z" fill="#FFC209"/>
<path d="M88.8299 164.74C83.4188 164.74 78.1623 162.048 75.258 157.236C69.9242 148.386 67.0972 138.275 67.0972 127.994C67.0972 117.714 69.9131 107.613 75.258 98.7632C79.5869 91.5773 89.1612 89.129 96.6484 93.2837C104.136 97.4384 106.687 106.627 102.358 113.813C99.7736 118.095 98.4043 123.002 98.4043 127.994C98.4043 132.986 99.7736 137.894 102.358 142.175C106.687 149.361 104.136 158.55 96.6484 162.705C94.1748 164.072 91.4803 164.729 88.8189 164.729L88.8299 164.74Z" fill="#86EF5F"/>
<path d="M30.9091 119.59C26.0723 125.981 27.541 134.926 34.211 139.579C40.87 144.221 50.1903 142.811 55.0382 136.41C59.8751 130.019 58.3953 121.074 51.7364 116.421C45.0774 111.779 35.757 113.188 30.9091 119.59Z" fill="#00B787"/>
<path d="M102.38 98.7739C98.0622 91.588 88.4989 89.1186 81.0006 93.2626C73.5134 97.4067 70.9404 106.585 75.2472 113.782C75.2472 113.782 75.2472 113.782 75.2472 113.792C75.3245 113.909 75.4018 114.025 75.4791 114.142C78.4165 118.742 83.5516 121.307 88.8301 121.307C91.4915 121.307 94.186 120.66 96.6597 119.282C104.136 115.128 106.698 105.949 102.38 98.7633V98.7739Z" fill="#86EF5F"/>
</g>
<defs>
<clipPath id="clip0_226_3739">
<rect width="220" height="202" fill="white" transform="translate(18 27)"/>
</clipPath>
</defs>
</svg>
